<?xml version="1.0" encoding="UTF-8" standalone="no"?>
<!DOCTYPE svg PUBLIC "-//W3C//DTD SVG 1.1//EN"
 "http://www.w3.org/Graphics/SVG/1.1/DTD/svg11.dtd">
<!-- Generated by graphviz version 2.40.1 (20161225.0304)
 -->
<!-- Title: G Pages: 1 -->
<svg width="282pt" height="380pt"
 viewBox="0.00 0.00 282.17 380.00" xmlns="http://www.w3.org/2000/svg" xmlns:xlink="http://www.w3.org/1999/xlink">
<g id="graph0" class="graph" transform="scale(1 1) rotate(0) translate(4 376)">
<title>G</title>
<polygon fill="#ffffff" stroke="transparent" points="-4,4 -4,-376 278.174,-376 278.174,4 -4,4"/>
<!-- A0 -->
<g id="node1" class="node">
<title>A0</title>
<polygon fill="#fff8dc" stroke="#000000" points="95.5226,-330 -.1746,-330 -.1746,-294 101.5226,-294 101.5226,-324 95.5226,-330"/>
<polyline fill="none" stroke="#000000" points="95.5226,-330 95.5226,-324 "/>
<polyline fill="none" stroke="#000000" points="101.5226,-324 95.5226,-324 "/>
<text text-anchor="middle" x="50.674" y="-315" font-family="Helvetica,sans-Serif" font-size="10.00" fill="#000000">Observer design</text>
<text text-anchor="middle" x="50.674" y="-303" font-family="Helvetica,sans-Serif" font-size="10.00" fill="#000000">pattern</text>
</g>
<!-- A1 -->
<g id="node2" class="node">
<title>A1</title>
<polygon fill="none" stroke="#000000" points="119.674,-340 119.674,-372 230.674,-372 230.674,-340 119.674,-340"/>
<text text-anchor="start" x="140.165" y="-353" font-family="Helvetica,sans-Serif" font-size="10.00" fill="#000000">AbstractSubject</text>
<polygon fill="none" stroke="#000000" points="119.674,-308 119.674,-340 230.674,-340 230.674,-308 119.674,-308"/>
<text text-anchor="start" x="129.616" y="-321" font-family="Helvetica,sans-Serif" font-size="10.00" fill="#000000">&#45;observers:Observer</text>
<polygon fill="none" stroke="#000000" points="119.674,-252 119.674,-308 230.674,-308 230.674,-252 119.674,-252"/>
<text text-anchor="start" x="154.753" y="-289" font-family="Helvetica,sans-Serif" font-size="10.00" fill="#000000">+Attach()</text>
<text text-anchor="start" x="153.088" y="-277" font-family="Helvetica,sans-Serif" font-size="10.00" fill="#000000">+Detach()</text>
<text text-anchor="start" x="156.148" y="-265" font-family="Helvetica,sans-Serif" font-size="10.00" fill="#000000">+Notify()</text>
</g>
<!-- A2 -->
<g id="node3" class="node">
<title>A2</title>
<polygon fill="none" stroke="#000000" points="80.674,-158 80.674,-202 162.674,-202 162.674,-158 80.674,-158"/>
<text text-anchor="start" x="90.545" y="-183" font-family="Helvetica,sans-Serif" font-size="10.00" fill="#000000">&lt;&lt;Interface&gt;&gt;</text>
<text text-anchor="start" x="101.117" y="-171" font-family="Helvetica,sans-Serif" font-size="10.00" fill="#000000">Observer</text>
<polygon fill="none" stroke="#000000" points="80.674,-126 80.674,-158 162.674,-158 162.674,-126 80.674,-126"/>
<text text-anchor="start" x="99.3085" y="-139" font-family="Helvetica,sans-Serif" font-size="10.00" fill="#000000">+Update()</text>
</g>
<!-- A1&#45;&gt;A2 -->
<g id="edge1" class="edge">
<title>A1&#45;&gt;A2</title>
<path fill="none" stroke="#000000" d="M153.1169,-251.8027C148.321,-238.4105 143.3012,-224.3929 138.7161,-211.5894"/>
<polygon fill="#000000" stroke="#000000" points="135.3056,-202.0656 142.9136,-209.963 136.9913,-206.7729 138.6771,-211.4801 138.6771,-211.4801 138.6771,-211.4801 136.9913,-206.7729 134.4405,-212.9973 135.3056,-202.0656 135.3056,-202.0656"/>
</g>
<!-- A4 -->
<g id="node5" class="node">
<title>A4</title>
<polygon fill="none" stroke="#000000" points="181.674,-170 181.674,-202 274.674,-202 274.674,-170 181.674,-170"/>
<text text-anchor="start" x="191.2205" y="-183" font-family="Helvetica,sans-Serif" font-size="10.00" fill="#000000">ConcreteSubject</text>
<polygon fill="none" stroke="#000000" points="181.674,-126 181.674,-170 274.674,-170 274.674,-126 181.674,-126"/>
<text text-anchor="start" x="215.6715" y="-151" font-family="Helvetica,sans-Serif" font-size="10.00" fill="#000000">&#45;state</text>
<text text-anchor="start" x="202.1945" y="-139" font-family="Helvetica,sans-Serif" font-size="10.00" fill="#000000">+GetState()</text>
</g>
<!-- A1&#45;&gt;A4 -->
<g id="edge4" class="edge">
<title>A1&#45;&gt;A4</title>
<path fill="none" stroke="#000000" d="M199.6451,-242.2695C204.6052,-228.4184 209.6371,-214.3672 214.0424,-202.0656"/>
<polygon fill="none" stroke="#000000" points="196.3075,-241.2082 196.2311,-251.8027 202.8977,-243.5682 196.3075,-241.2082"/>
</g>
<!-- A3 -->
<g id="node4" class="node">
<title>A3</title>
<polygon fill="none" stroke="#000000" points="109.674,-44 109.674,-76 240.674,-76 240.674,-44 109.674,-44"/>
<text text-anchor="start" x="134.3355" y="-57" font-family="Helvetica,sans-Serif" font-size="10.00" fill="#000000">ConcreteObserver</text>
<polygon fill="none" stroke="#000000" points="109.674,0 109.674,-44 240.674,-44 240.674,0 109.674,0"/>
<text text-anchor="start" x="119.329" y="-25" font-family="Helvetica,sans-Serif" font-size="10.00" fill="#000000">&#45;subject:ConcreteSubject</text>
<text text-anchor="start" x="152.8085" y="-13" font-family="Helvetica,sans-Serif" font-size="10.00" fill="#000000">+Update()</text>
</g>
<!-- A2&#45;&gt;A3 -->
<g id="edge2" class="edge">
<title>A2&#45;&gt;A3</title>
<path fill="none" stroke="#000000" d="M141.7151,-116.3551C147.3235,-103.0219 153.3429,-88.7116 158.683,-76.0164"/>
<polygon fill="none" stroke="#000000" points="138.3707,-115.2791 137.7196,-125.8539 144.8231,-117.9932 138.3707,-115.2791"/>
</g>
<!-- A4&#45;&gt;A3 -->
<g id="edge3" class="edge">
<title>A4&#45;&gt;A3</title>
<path fill="none" stroke="#000000" d="M207.6329,-116.3551C202.0245,-103.0219 196.0051,-88.7116 190.665,-76.0164"/>
<polygon fill="#000000" stroke="#000000" points="211.6284,-125.8539 203.6031,-118.381 209.6897,-121.245 207.7511,-116.6362 207.7511,-116.6362 207.7511,-116.6362 209.6897,-121.245 211.899,-114.8914 211.6284,-125.8539 211.6284,-125.8539"/>
</g>
</g>
</svg>
