<?xml version="1.0" encoding="UTF-8" standalone="no"?>
<!DOCTYPE svg PUBLIC "-//W3C//DTD SVG 1.1//EN"
 "http://www.w3.org/Graphics/SVG/1.1/DTD/svg11.dtd">
<!-- Generated by graphviz version 2.40.1 (20161225.0304)
 -->
<!-- Title: G Pages: 1 -->
<svg width="186pt" height="312pt"
 viewBox="0.00 0.00 186.00 312.00" xmlns="http://www.w3.org/2000/svg" xmlns:xlink="http://www.w3.org/1999/xlink">
<g id="graph0" class="graph" transform="scale(1 1) rotate(0) translate(4 308)">
<title>G</title>
<polygon fill="#ffffff" stroke="transparent" points="-4,4 -4,-308 182,-308 182,4 -4,4"/>
<!-- A0 -->
<g id="node1" class="node">
<title>A0</title>
<polygon fill="none" stroke="#000000" points="0,-272 0,-304 94,-304 94,-272 0,-272"/>
<text text-anchor="start" x="34.223" y="-285" font-family="Helvetica,sans-Serif" font-size="10.00" fill="#000000">Client</text>
<polygon fill="none" stroke="#000000" points="0,-240 0,-272 94,-272 94,-240 0,-240"/>
<text text-anchor="start" x="9.911" y="-253" font-family="Helvetica,sans-Serif" font-size="10.00" fill="#000000">+MakeRequest()</text>
</g>
<!-- A1 -->
<g id="node2" class="node">
<title>A1</title>
<polygon fill="none" stroke="#000000" points="7,-146 7,-190 88,-190 88,-146 7,-146"/>
<text text-anchor="start" x="16.651" y="-171" font-family="Helvetica,sans-Serif" font-size="10.00" fill="#000000">&lt;&lt;interface&gt;&gt;</text>
<text text-anchor="start" x="31.6635" y="-159" font-family="Helvetica,sans-Serif" font-size="10.00" fill="#000000">ITarget</text>
<polygon fill="none" stroke="#000000" points="7,-114 7,-146 88,-146 88,-114 7,-114"/>
<text text-anchor="start" x="21.245" y="-127" font-family="Helvetica,sans-Serif" font-size="10.00" fill="#000000">+MethodA()</text>
</g>
<!-- A0&#45;&gt;A1 -->
<g id="edge1" class="edge">
<title>A0&#45;&gt;A1</title>
<path fill="none" stroke="#000000" d="M47,-239.8422C47,-227.7905 47,-213.8132 47,-200.6014"/>
<polygon fill="#000000" stroke="#000000" points="47,-190.2213 51.5001,-200.2212 47,-195.2213 47.0001,-200.2213 47.0001,-200.2213 47.0001,-200.2213 47,-195.2213 42.5001,-200.2213 47,-190.2213 47,-190.2213"/>
</g>
<!-- A2 -->
<g id="node3" class="node">
<title>A2</title>
<polygon fill="none" stroke="#000000" points="58,-32 58,-64 130,-64 130,-32 58,-32"/>
<text text-anchor="start" x="76.4935" y="-45" font-family="Helvetica,sans-Serif" font-size="10.00" fill="#000000">Adapter</text>
<polygon fill="none" stroke="#000000" points="58,0 58,-32 130,-32 130,0 58,0"/>
<text text-anchor="start" x="67.745" y="-13" font-family="Helvetica,sans-Serif" font-size="10.00" fill="#000000">+MethodA()</text>
</g>
<!-- A1&#45;&gt;A2 -->
<g id="edge2" class="edge">
<title>A1&#45;&gt;A2</title>
<path fill="none" stroke="#000000" d="M65.742,-104.148C70.9822,-90.7688 76.5519,-76.5484 81.3488,-64.3008"/>
<polygon fill="none" stroke="#000000" points="62.3883,-103.1136 62.0003,-113.7013 68.9062,-105.6665 62.3883,-103.1136"/>
</g>
<!-- A3 -->
<g id="node4" class="node">
<title>A3</title>
<polygon fill="none" stroke="#000000" points="106,-152 106,-184 178,-184 178,-152 106,-152"/>
<text text-anchor="start" x="123.3785" y="-165" font-family="Helvetica,sans-Serif" font-size="10.00" fill="#000000">Adaptee</text>
<polygon fill="none" stroke="#000000" points="106,-120 106,-152 178,-152 178,-120 106,-120"/>
<text text-anchor="start" x="115.745" y="-133" font-family="Helvetica,sans-Serif" font-size="10.00" fill="#000000">+MethodB()</text>
</g>
<!-- A3&#45;&gt;A2 -->
<g id="edge3" class="edge">
<title>A3&#45;&gt;A2</title>
<path fill="none" stroke="#000000" d="M125.2903,-110.2258C119.2606,-95.1515 112.5525,-78.3812 106.8986,-64.2466"/>
<polygon fill="none" stroke="#000000" points="122.1732,-111.8573 129.1369,-119.8422 128.6726,-109.2575 122.1732,-111.8573"/>
</g>
</g>
</svg>
