<?xml version="1.0" encoding="UTF-8" standalone="no"?>
<!DOCTYPE svg PUBLIC "-//W3C//DTD SVG 1.1//EN"
 "http://www.w3.org/Graphics/SVG/1.1/DTD/svg11.dtd">
<!-- Generated by graphviz version 2.40.1 (20161225.0304)
 -->
<!-- Title: G Pages: 1 -->
<svg width="309pt" height="336pt"
 viewBox="0.00 0.00 308.50 336.00" xmlns="http://www.w3.org/2000/svg" xmlns:xlink="http://www.w3.org/1999/xlink">
<g id="graph0" class="graph" transform="scale(1 1) rotate(0) translate(4 332)">
<title>G</title>
<polygon fill="#ffffff" stroke="transparent" points="-4,4 -4,-332 304.5,-332 304.5,4 -4,4"/>
<!-- A0 -->
<g id="node1" class="node">
<title>A0</title>
<polygon fill="none" stroke="#000000" points="0,-44 0,-76 88,-76 88,-44 0,-44"/>
<text text-anchor="start" x="15.104" y="-57" font-family="Helvetica,sans-Serif" font-size="10.00" fill="#000000">SubSystemA</text>
<polygon fill="none" stroke="#000000" points="0,0 0,-44 88,-44 88,0 0,0"/>
<text text-anchor="start" x="9.687" y="-25" font-family="Helvetica,sans-Serif" font-size="10.00" fill="#000000">+OperationA1()</text>
<text text-anchor="start" x="9.687" y="-13" font-family="Helvetica,sans-Serif" font-size="10.00" fill="#000000">+OperationA2()</text>
</g>
<!-- A1 -->
<g id="node2" class="node">
<title>A1</title>
<polygon fill="none" stroke="#000000" points="106,-44 106,-76 194,-76 194,-44 106,-44"/>
<text text-anchor="start" x="121.104" y="-57" font-family="Helvetica,sans-Serif" font-size="10.00" fill="#000000">SubSystemB</text>
<polygon fill="none" stroke="#000000" points="106,0 106,-44 194,-44 194,0 106,0"/>
<text text-anchor="start" x="115.687" y="-25" font-family="Helvetica,sans-Serif" font-size="10.00" fill="#000000">+OperationB1()</text>
<text text-anchor="start" x="115.687" y="-13" font-family="Helvetica,sans-Serif" font-size="10.00" fill="#000000">+OperationB2()</text>
</g>
<!-- A2 -->
<g id="node3" class="node">
<title>A2</title>
<polygon fill="none" stroke="#000000" points="212,-44 212,-76 301,-76 301,-44 212,-44"/>
<text text-anchor="start" x="227.329" y="-57" font-family="Helvetica,sans-Serif" font-size="10.00" fill="#000000">SubSystemC</text>
<polygon fill="none" stroke="#000000" points="212,0 212,-44 301,-44 301,0 212,0"/>
<text text-anchor="start" x="221.912" y="-25" font-family="Helvetica,sans-Serif" font-size="10.00" fill="#000000">+OperationC1()</text>
<text text-anchor="start" x="221.912" y="-13" font-family="Helvetica,sans-Serif" font-size="10.00" fill="#000000">+OperationC2()</text>
</g>
<!-- A3 -->
<g id="node4" class="node">
<title>A3</title>
<polygon fill="none" stroke="#000000" points="106,-182 106,-214 195,-214 195,-182 106,-182"/>
<text text-anchor="start" x="133.8275" y="-195" font-family="Helvetica,sans-Serif" font-size="10.00" fill="#000000">Facade</text>
<polygon fill="none" stroke="#000000" points="106,-126 106,-182 195,-182 195,-126 106,-126"/>
<text text-anchor="start" x="116.605" y="-163" font-family="Helvetica,sans-Serif" font-size="10.00" fill="#000000">&#45;a:SubsystemA</text>
<text text-anchor="start" x="118.2695" y="-151" font-family="Helvetica,sans-Serif" font-size="10.00" fill="#000000">b:SubsystemB</text>
<text text-anchor="start" x="115.775" y="-139" font-family="Helvetica,sans-Serif" font-size="10.00" fill="#000000">&#45;c:SubSystemC</text>
</g>
<!-- A3&#45;&gt;A0 -->
<g id="edge1" class="edge">
<title>A3&#45;&gt;A0</title>
<path fill="none" stroke="#000000" d="M114.4087,-125.6787C103.7499,-112.4055 92.0344,-97.8164 81.2706,-84.4125"/>
<polygon fill="#000000" stroke="#000000" points="74.7096,-76.2422 84.4797,-81.2217 77.8403,-80.1408 80.971,-84.0394 80.971,-84.0394 80.971,-84.0394 77.8403,-80.1408 77.4623,-86.857 74.7096,-76.2422 74.7096,-76.2422"/>
</g>
<!-- A3&#45;&gt;A1 -->
<g id="edge2" class="edge">
<title>A3&#45;&gt;A1</title>
<path fill="none" stroke="#000000" d="M150,-125.6787C150,-113.0316 150,-99.1898 150,-86.3169"/>
<polygon fill="#000000" stroke="#000000" points="150,-76.2422 154.5001,-86.2421 150,-81.2422 150.0001,-86.2422 150.0001,-86.2422 150.0001,-86.2422 150,-81.2422 145.5001,-86.2422 150,-76.2422 150,-76.2422"/>
</g>
<!-- A3&#45;&gt;A2 -->
<g id="edge3" class="edge">
<title>A3&#45;&gt;A2</title>
<path fill="none" stroke="#000000" d="M185.5913,-125.6787C196.2501,-112.4055 207.9656,-97.8164 218.7294,-84.4125"/>
<polygon fill="#000000" stroke="#000000" points="225.2904,-76.2422 222.5377,-86.857 222.1597,-80.1408 219.029,-84.0394 219.029,-84.0394 219.029,-84.0394 222.1597,-80.1408 215.5203,-81.2217 225.2904,-76.2422 225.2904,-76.2422"/>
</g>
<!-- A4 -->
<g id="node5" class="node">
<title>A4</title>
<polygon fill="none" stroke="#000000" points="106,-296 106,-328 195,-328 195,-296 106,-296"/>
<text text-anchor="start" x="137.723" y="-309" font-family="Helvetica,sans-Serif" font-size="10.00" fill="#000000">Client</text>
<polygon fill="none" stroke="#000000" points="106,-264 106,-296 195,-296 195,-264 106,-264"/>
<text text-anchor="start" x="115.766" y="-277" font-family="Helvetica,sans-Serif" font-size="10.00" fill="#000000">&#45;facade:Facade</text>
</g>
<!-- A4&#45;&gt;A3 -->
<g id="edge4" class="edge">
<title>A4&#45;&gt;A3</title>
<path fill="none" stroke="#000000" d="M150,-263.8789C150,-251.91 150,-237.9656 150,-224.5429"/>
<polygon fill="#000000" stroke="#000000" points="150,-214.4215 154.5001,-224.4215 150,-219.4215 150.0001,-224.4215 150.0001,-224.4215 150.0001,-224.4215 150,-219.4215 145.5001,-224.4215 150,-214.4215 150,-214.4215"/>
</g>
</g>
</svg>
