<?xml version="1.0" encoding="UTF-8" standalone="no"?>
<!DOCTYPE svg PUBLIC "-//W3C//DTD SVG 1.1//EN"
 "http://www.w3.org/Graphics/SVG/1.1/DTD/svg11.dtd">
<!-- Generated by graphviz version 2.40.1 (20161225.0304)
 -->
<!-- Title: G Pages: 1 -->
<svg width="428pt" height="132pt"
 viewBox="0.00 0.00 428.00 132.00" xmlns="http://www.w3.org/2000/svg" xmlns:xlink="http://www.w3.org/1999/xlink">
<g id="graph0" class="graph" transform="scale(1 1) rotate(0) translate(4 128)">
<title>G</title>
<polygon fill="#ffffff" stroke="transparent" points="-4,4 -4,-128 424,-128 424,4 -4,4"/>
<!-- A0 -->
<g id="node1" class="node">
<title>A0</title>
<polygon fill="none" stroke="#000000" points=".5,-80 .5,-124 95.5,-124 95.5,-80 .5,-80"/>
<text text-anchor="start" x="17.151" y="-105" font-family="Helvetica,sans-Serif" font-size="10.00" fill="#000000">&lt;&lt;interface&gt;&gt;</text>
<text text-anchor="start" x="31.328" y="-93" font-family="Helvetica,sans-Serif" font-size="10.00" fill="#000000">Subject</text>
<polygon fill="none" stroke="#000000" points=".5,-48 .5,-80 95.5,-80 95.5,-48 .5,-48"/>
<text text-anchor="start" x="10.0825" y="-61" font-family="Helvetica,sans-Serif" font-size="10.00" fill="#000000">+PerformAction()</text>
</g>
<!-- A1 -->
<g id="node2" class="node">
<title>A1</title>
<polygon fill="none" stroke="#000000" points="325.5,-86 325.5,-118 420.5,-118 420.5,-86 325.5,-86"/>
<text text-anchor="start" x="346.05" y="-99" font-family="Helvetica,sans-Serif" font-size="10.00" fill="#000000">RealSubject</text>
<polygon fill="none" stroke="#000000" points="325.5,-54 325.5,-86 420.5,-86 420.5,-54 325.5,-54"/>
<text text-anchor="start" x="335.0825" y="-67" font-family="Helvetica,sans-Serif" font-size="10.00" fill="#000000">+PerformAction()</text>
</g>
<!-- A0&#45;&gt;A1 -->
<g id="edge1" class="edge">
<title>A0&#45;&gt;A1</title>
<path fill="none" stroke="#000000" d="M105.5109,-99.2033C118.4407,-101.6142 132.1324,-103.7579 145,-105 202.5105,-110.5514 217.4895,-110.5514 275,-105 291.3074,-103.4259 308.9385,-100.4035 324.665,-97.2246"/>
<polygon fill="none" stroke="#000000" points="105.8192,-95.6977 95.335,-97.2246 104.4831,-102.569 105.8192,-95.6977"/>
</g>
<!-- A2 -->
<g id="node3" class="node">
<title>A2</title>
<polygon fill="none" stroke="#000000" points="145,-64 145,-96 275,-96 275,-64 145,-64"/>
<text text-anchor="start" x="197.2215" y="-77" font-family="Helvetica,sans-Serif" font-size="10.00" fill="#000000">Proxy</text>
<polygon fill="none" stroke="#000000" points="145,-32 145,-64 275,-64 275,-32 145,-32"/>
<text text-anchor="start" x="154.991" y="-45" font-family="Helvetica,sans-Serif" font-size="10.00" fill="#000000">&#45;realSubject:RealSubject</text>
<polygon fill="none" stroke="#000000" points="145,0 145,-32 275,-32 275,0 145,0"/>
<text text-anchor="start" x="172.0825" y="-13" font-family="Helvetica,sans-Serif" font-size="10.00" fill="#000000">+PerformAction()</text>
</g>
<!-- A0&#45;&gt;A2 -->
<g id="edge2" class="edge">
<title>A0&#45;&gt;A2</title>
<path fill="none" stroke="#000000" d="M105.3849,-72.4638C118.1218,-69.4854 131.696,-66.3111 144.7025,-63.2696"/>
<polygon fill="none" stroke="#000000" points="104.3168,-69.1191 95.3765,-74.8043 105.9107,-75.9352 104.3168,-69.1191"/>
</g>
<!-- A2&#45;&gt;A1 -->
<g id="edge3" class="edge">
<title>A2&#45;&gt;A1</title>
<path fill="none" stroke="#000000" d="M275.1586,-63.2371C288.2572,-66.3001 301.9369,-69.4991 314.7615,-72.4981"/>
<polygon fill="#000000" stroke="#000000" points="324.8358,-74.8539 314.0738,-76.9586 319.9671,-73.7154 315.0985,-72.5768 315.0985,-72.5768 315.0985,-72.5768 319.9671,-73.7154 316.1232,-68.195 324.8358,-74.8539 324.8358,-74.8539"/>
</g>
</g>
</svg>
