<?xml version="1.0" encoding="UTF-8" standalone="no"?>
<!DOCTYPE svg PUBLIC "-//W3C//DTD SVG 1.1//EN"
 "http://www.w3.org/Graphics/SVG/1.1/DTD/svg11.dtd">
<!-- Generated by graphviz version 2.40.1 (20161225.0304)
 -->
<!-- Title: G Pages: 1 -->
<svg width="220pt" height="216pt"
 viewBox="0.00 0.00 220.47 216.00" xmlns="http://www.w3.org/2000/svg" xmlns:xlink="http://www.w3.org/1999/xlink">
<g id="graph0" class="graph" transform="scale(1 1) rotate(0) translate(4 212)">
<title>G</title>
<polygon fill="#ffffff" stroke="transparent" points="-4,4 -4,-212 216.4665,-212 216.4665,4 -4,4"/>
<!-- A0 -->
<g id="node1" class="node">
<title>A0</title>
<polygon fill="none" stroke="#000000" points="90.3874,-122 -.1294,-122 -.1294,-86 90.3874,-86 90.3874,-122"/>
<text text-anchor="middle" x="45.129" y="-107" font-family="Helvetica,sans-Serif" font-size="10.00" fill="#000000">&lt;&lt;Interface&gt;&gt;</text>
<text text-anchor="middle" x="45.129" y="-95" font-family="Helvetica,sans-Serif" font-size="10.00" fill="#000000">Product</text>
</g>
<!-- A1 -->
<g id="node2" class="node">
<title>A1</title>
<polygon fill="none" stroke="#000000" points="154.9252,-36 49.3328,-36 49.3328,0 154.9252,0 154.9252,-36"/>
<text text-anchor="middle" x="102.129" y="-15" font-family="Helvetica,sans-Serif" font-size="10.00" fill="#000000">Concrete Product</text>
</g>
<!-- A0&#45;&gt;A1 -->
<g id="edge1" class="edge">
<title>A0&#45;&gt;A1</title>
<path fill="none" stroke="#000000" d="M62.7578,-77.4021C71.618,-64.0342 82.127,-48.1784 90.0582,-36.2121"/>
<polygon fill="none" stroke="#000000" points="59.8245,-75.4926 57.2172,-85.7616 65.6593,-79.3598 59.8245,-75.4926"/>
</g>
<!-- A2 -->
<g id="node3" class="node">
<title>A2</title>
<polygon fill="none" stroke="#000000" points="209.136,-208 111.122,-208 111.122,-172 209.136,-172 209.136,-208"/>
<text text-anchor="middle" x="160.129" y="-187" font-family="Helvetica,sans-Serif" font-size="10.00" fill="#000000">AbstractCreator</text>
</g>
<!-- A3 -->
<g id="node4" class="node">
<title>A3</title>
<polygon fill="none" stroke="#000000" points="212.3045,-122 107.9535,-122 107.9535,-86 212.3045,-86 212.3045,-122"/>
<text text-anchor="middle" x="160.129" y="-101" font-family="Helvetica,sans-Serif" font-size="10.00" fill="#000000">Concrete Creator</text>
</g>
<!-- A2&#45;&gt;A3 -->
<g id="edge2" class="edge">
<title>A2&#45;&gt;A3</title>
<path fill="none" stroke="#000000" d="M160.129,-161.4762C160.129,-148.5329 160.129,-133.6086 160.129,-122.2121"/>
<polygon fill="none" stroke="#000000" points="156.6291,-161.7616 160.129,-171.7616 163.6291,-161.7616 156.6291,-161.7616"/>
</g>
<!-- A3&#45;&gt;A1 -->
<g id="edge3" class="edge">
<title>A3&#45;&gt;A1</title>
<path fill="none" stroke="#000000" stroke-dasharray="5,2" d="M147.8287,-85.7616C139.7545,-73.7896 129.0604,-57.9328 120.0473,-44.5685"/>
<polygon fill="#000000" stroke="#000000" points="114.4116,-36.2121 123.7339,-41.9867 117.2073,-40.3575 120.003,-44.5028 120.003,-44.5028 120.003,-44.5028 117.2073,-40.3575 116.2722,-47.019 114.4116,-36.2121 114.4116,-36.2121"/>
</g>
</g>
</svg>
