<?xml version="1.0" encoding="UTF-8" standalone="no"?>
<!DOCTYPE svg PUBLIC "-//W3C//DTD SVG 1.1//EN"
 "http://www.w3.org/Graphics/SVG/1.1/DTD/svg11.dtd">
<!-- Generated by graphviz version 2.40.1 (20161225.0304)
 -->
<!-- Title: G Pages: 1 -->
<svg width="210pt" height="302pt"
 viewBox="0.00 0.00 210.24 302.00" xmlns="http://www.w3.org/2000/svg" xmlns:xlink="http://www.w3.org/1999/xlink">
<g id="graph0" class="graph" transform="scale(1 1) rotate(0) translate(4 298)">
<title>G</title>
<polygon fill="#ffffff" stroke="transparent" points="-4,4 -4,-298 206.2365,-298 206.2365,4 -4,4"/>
<!-- A0 -->
<g id="node1" class="node">
<title>A0</title>
<polygon fill="none" stroke="#000000" points="198.9666,-122 99.7104,-122 99.7104,-86 198.9666,-86 198.9666,-122"/>
<text text-anchor="middle" x="149.3385" y="-107" font-family="Helvetica,sans-Serif" font-size="10.00" fill="#000000">&lt;&lt;Interface&gt;&gt;</text>
<text text-anchor="middle" x="149.3385" y="-95" font-family="Helvetica,sans-Serif" font-size="10.00" fill="#000000">AbstractProduct</text>
</g>
<!-- A1 -->
<g id="node2" class="node">
<title>A1</title>
<polygon fill="none" stroke="#000000" points="202.1347,-36 96.5423,-36 96.5423,0 202.1347,0 202.1347,-36"/>
<text text-anchor="middle" x="149.3385" y="-15" font-family="Helvetica,sans-Serif" font-size="10.00" fill="#000000">Concrete Product</text>
</g>
<!-- A0&#45;&gt;A1 -->
<g id="edge1" class="edge">
<title>A0&#45;&gt;A1</title>
<path fill="none" stroke="#000000" d="M149.3385,-75.4762C149.3385,-62.5329 149.3385,-47.6086 149.3385,-36.2121"/>
<polygon fill="none" stroke="#000000" points="145.8386,-75.7616 149.3385,-85.7616 152.8386,-75.7616 145.8386,-75.7616"/>
</g>
<!-- A2 -->
<g id="node3" class="node">
<title>A2</title>
<polygon fill="none" stroke="#000000" points="149.3475,-294 51.3295,-294 51.3295,-258 149.3475,-258 149.3475,-294"/>
<text text-anchor="middle" x="100.3385" y="-279" font-family="Helvetica,sans-Serif" font-size="10.00" fill="#000000">&lt;&lt;Interface&gt;&gt;</text>
<text text-anchor="middle" x="100.3385" y="-267" font-family="Helvetica,sans-Serif" font-size="10.00" fill="#000000">AbstractFactory</text>
</g>
<!-- A3 -->
<g id="node4" class="node">
<title>A3</title>
<polygon fill="none" stroke="#000000" points="104.516,-208 .161,-208 .161,-172 104.516,-172 104.516,-208"/>
<text text-anchor="middle" x="52.3385" y="-187" font-family="Helvetica,sans-Serif" font-size="10.00" fill="#000000">Concrete Factory</text>
</g>
<!-- A2&#45;&gt;A3 -->
<g id="edge2" class="edge">
<title>A2&#45;&gt;A3</title>
<path fill="none" stroke="#000000" d="M85.2796,-249.0195C77.8636,-235.7325 69.1187,-220.0645 62.5034,-208.2121"/>
<polygon fill="none" stroke="#000000" points="82.229,-250.7354 90.1589,-257.7616 88.3414,-247.3238 82.229,-250.7354"/>
</g>
<!-- A4 -->
<g id="node5" class="node">
<title>A4</title>
<polygon fill="none" stroke="#000000" points="176.3385,-208 122.3385,-208 122.3385,-172 176.3385,-172 176.3385,-208"/>
<text text-anchor="middle" x="149.3385" y="-187" font-family="Helvetica,sans-Serif" font-size="10.00" fill="#000000">Client</text>
</g>
<!-- A2&#45;&gt;A4 -->
<g id="edge3" class="edge">
<title>A2&#45;&gt;A4</title>
<path fill="none" stroke="#000000" d="M115.7111,-249.0195C123.2816,-235.7325 132.2087,-220.0645 138.9618,-208.2121"/>
<polygon fill="#000000" stroke="#000000" points="110.7301,-257.7616 111.7708,-246.8452 113.2054,-253.4173 115.6807,-249.073 115.6807,-249.073 115.6807,-249.073 113.2054,-253.4173 119.5906,-251.3007 110.7301,-257.7616 110.7301,-257.7616"/>
</g>
<!-- A4&#45;&gt;A0 -->
<g id="edge4" class="edge">
<title>A4&#45;&gt;A0</title>
<path fill="none" stroke="#000000" d="M149.3385,-171.7616C149.3385,-160.3597 149.3385,-145.4342 149.3385,-132.494"/>
<polygon fill="#000000" stroke="#000000" points="149.3385,-122.2121 153.8386,-132.2121 149.3385,-127.2121 149.3386,-132.2121 149.3386,-132.2121 149.3386,-132.2121 149.3385,-127.2121 144.8386,-132.2121 149.3385,-122.2121 149.3385,-122.2121"/>
</g>
</g>
</svg>
